<svg xmlns="http://www.w3.org/2000/svg" viewBox="0 0 900 600">
  <!-- Background -->
  <rect width="900" height="600" fill="#f8f9fa" />
  
  <!-- Title -->
  <text x="450" y="30" font-family="Arial" font-size="24" font-weight="bold" text-anchor="middle">AI Canvas Architecture</text>
  
  <!-- Frontend Section -->
  <rect x="50" y="70" width="350" height="280" rx="10" fill="#e1f5fe" stroke="#0288d1" stroke-width="2" />
  <text x="225" y="90" font-family="Arial" font-size="18" font-weight="bold" text-anchor="middle">Frontend</text>
  
  <!-- Frontend Modules -->
  <rect x="70" y="110" width="140" height="50" rx="5" fill="#b3e5fc" stroke="#0288d1" stroke-width="1" />
  <text x="140" y="140" font-family="Arial" font-size="14" text-anchor="middle">Core Modules</text>
  
  <rect x="70" y="170" width="140" height="50" rx="5" fill="#b3e5fc" stroke="#0288d1" stroke-width="1" />
  <text x="140" y="200" font-family="Arial" font-size="14" text-anchor="middle">UI Manager</text>
  
  <rect x="70" y="230" width="140" height="50" rx="5" fill="#b3e5fc" stroke="#0288d1" stroke-width="1" />
  <text x="140" y="260" font-family="Arial" font-size="14" text-anchor="middle">Event Bus</text>
  
  <rect x="70" y="290" width="140" height="50" rx="5" fill="#b3e5fc" stroke="#0288d1" stroke-width="1" />
  <text x="140" y="320" font-family="Arial" font-size="14" text-anchor="middle">State Manager</text>
  
  <rect x="240" y="110" width="140" height="50" rx="5" fill="#b3e5fc" stroke="#0288d1" stroke-width="1" />
  <text x="310" y="140" font-family="Arial" font-size="14" text-anchor="middle">Graph Manager</text>
  
  <rect x="240" y="170" width="140" height="50" rx="5" fill="#b3e5fc" stroke="#0288d1" stroke-width="1" />
  <text x="310" y="200" font-family="Arial" font-size="14" text-anchor="middle">Conversation Manager</text>
  
  <rect x="240" y="230" width="140" height="50" rx="5" fill="#b3e5fc" stroke="#0288d1" stroke-width="1" />
  <text x="310" y="260" font-family="Arial" font-size="14" text-anchor="middle">API Client</text>
  
  <rect x="240" y="290" width="140" height="50" rx="5" fill="#b3e5fc" stroke="#0288d1" stroke-width="1" />
  <text x="310" y="320" font-family="Arial" font-size="14" text-anchor="middle">Error Handler</text>
  
  <!-- Backend Section -->
  <rect x="500" y="70" width="350" height="280" rx="10" fill="#e8f5e9" stroke="#388e3c" stroke-width="2" />
  <text x="675" y="90" font-family="Arial" font-size="18" font-weight="bold" text-anchor="middle">Backend</text>
  
  <!-- Backend Modules -->
  <rect x="520" y="110" width="140" height="50" rx="5" fill="#c8e6c9" stroke="#388e3c" stroke-width="1" />
  <text x="590" y="140" font-family="Arial" font-size="14" text-anchor="middle">API Routes</text>
  
  <rect x="520" y="170" width="140" height="50" rx="5" fill="#c8e6c9" stroke="#388e3c" stroke-width="1" />
  <text x="590" y="200" font-family="Arial" font-size="14" text-anchor="middle">Graph Service</text>
  
  <rect x="520" y="230" width="140" height="50" rx="5" fill="#c8e6c9" stroke="#388e3c" stroke-width="1" />
  <text x="590" y="260" font-family="Arial" font-size="14" text-anchor="middle">Node Service</text>
  
  <rect x="520" y="290" width="140" height="50" rx="5" fill="#c8e6c9" stroke="#388e3c" stroke-width="1" />
  <text x="590" y="320" font-family="Arial" font-size="14" text-anchor="middle">Workflow Service</text>
  
  <rect x="690" y="110" width="140" height="50" rx="5" fill="#c8e6c9" stroke="#388e3c" stroke-width="1" />
  <text x="760" y="140" font-family="Arial" font-size="14" text-anchor="middle">Ollama Adapter</text>
  
  <rect x="690" y="170" width="140" height="50" rx="5" fill="#c8e6c9" stroke="#388e3c" stroke-width="1" />
  <text x="760" y="200" font-family="Arial" font-size="14" text-anchor="middle">Groq Adapter</text>
  
  <rect x="690" y="230" width="140" height="50" rx="5" fill="#c8e6c9" stroke="#388e3c" stroke-width="1" />
  <text x="760" y="260" font-family="Arial" font-size="14" text-anchor="middle">Model Registry</text>
  
  <rect x="690" y="290" width="140" height="50" rx="5" fill="#c8e6c9" stroke="#388e3c" stroke-width="1" />
  <text x="760" y="320" font-family="Arial" font-size="14" text-anchor="middle">Error Handling</text>
  
  <!-- Database Section -->
  <rect x="275" y="400" width="350" height="160" rx="10" fill="#f3e5f5" stroke="#7b1fa2" stroke-width="2" />
  <text x="450" y="420" font-family="Arial" font-size="18" font-weight="bold" text-anchor="middle">Database</text>
  
  <!-- Database Components -->
  <rect x="295" y="440" width="140" height="50" rx="5" fill="#e1bee7" stroke="#7b1fa2" stroke-width="1" />
  <text x="365" y="470" font-family="Arial" font-size="14" text-anchor="middle">Graph Model</text>
  
  <rect x="295" y="500" width="140" height="50" rx="5" fill="#e1bee7" stroke="#7b1fa2" stroke-width="1" />
  <text x="365" y="530" font-family="Arial" font-size="14" text-anchor="middle">Node Model</text>
  
  <rect x="465" y="440" width="140" height="50" rx="5" fill="#e1bee7" stroke="#7b1fa2" stroke-width="1" />
  <text x="535" y="470" font-family="Arial" font-size="14" text-anchor="middle">Conversation Model</text>
  
  <rect x="465" y="500" width="140" height="50" rx="5" fill="#e1bee7" stroke="#7b1fa2" stroke-width="1" />
  <text x="535" y="530" font-family="Arial" font-size="14" text-anchor="middle">Message Model</text>
  
  <!-- Connection Arrows -->
  <!-- Frontend to Backend -->
  <line x1="400" y1="210" x2="500" y2="210" stroke="#666" stroke-width="2" stroke-dasharray="5,5" />
  <polygon points="490,205 500,210 490,215" fill="#666" />
  
  <!-- Backend to Frontend -->
  <line x1="500" y1="190" x2="400" y2="190" stroke="#666" stroke-width="2" stroke-dasharray="5,5" />
  <polygon points="410,185 400,190 410,195" fill="#666" />
  
  <!-- Backend to Database -->
  <line x1="675" y1="350" x2="450" y2="400" stroke="#666" stroke-width="2" stroke-dasharray="5,5" />
  <polygon points="453,391 450,400 447,391" fill="#666" />
  
  <!-- Database to Backend -->
  <line x1="450" y1="380" x2="675" y2="330" stroke="#666" stroke-width="2" stroke-dasharray="5,5" />
  <polygon points="669,336 675,330 665,329" fill="#666" />
  
  <!-- Local Storage Connection -->
  <rect x="75" y="450" width="140" height="50" rx="5" fill="#fff9c4" stroke="#fbc02d" stroke-width="2" />
  <text x="145" y="480" font-family="Arial" font-size="14" text-anchor="middle">Local Storage</text>
  
  <line x1="145" y1="350" x2="145" y2="450" stroke="#fbc02d" stroke-width="2" stroke-dasharray="5,5" />
  <polygon points="140,440 145,450 150,440" fill="#fbc02d" />
  
  <!-- Legend -->
  <rect x="650" y="450" width="20" height="10" fill="#b3e5fc" stroke="#0288d1" stroke-width="1" />
  <text x="675" y="459" font-family="Arial" font-size="12" text-anchor="start">Frontend Module</text>
  
  <rect x="650" y="470" width="20" height="10" fill="#c8e6c9" stroke="#388e3c" stroke-width="1" />
  <text x="675" y="479" font-family="Arial" font-size="12" text-anchor="start">Backend Module</text>
  
  <rect x="650" y="490" width="20" height="10" fill="#e1bee7" stroke="#7b1fa2" stroke-width="1" />
  <text x="675" y="499" font-family="Arial" font-size="12" text-anchor="start">Database Model</text>
  
  <rect x="650" y="510" width="20" height="10" fill="#fff9c4" stroke="#fbc02d" stroke-width="2" />
  <text x="675" y="519" font-family="Arial" font-size="12" text-anchor="start">Local Storage</text>
  
  <line x1="650" y1="530" x2="670" y2="530" stroke="#666" stroke-width="2" stroke-dasharray="5,5" />
  <text x="675" y="534" font-family="Arial" font-size="12" text-anchor="start">Data Flow</text>
</svg>
